<mxfile host="app.diagrams.net">
  <diagram name="Itinerary Creation Flow" id="I0oGbr5Qgdv6Yd_6r5mP">
    <mxGraphModel dx="1424" dy="891" grid="1" gridSize="10" guides="1" tooltips="1" connect="1" arrows="1" fold="1" page="1" pageScale="1" pageWidth="827" pageHeight="1169" math="0" shadow="0">
      <root>
        <mxCell id="0" />
        <mxCell id="1" parent="0" />
        <mxCell id="2" value="Start" style="ellipse;whiteSpace=wrap;html=1;" vertex="1" parent="1">
          <mxGeometry x="320" y="40" width="120" height="60" as="geometry" />
        </mxCell>
        <mxCell id="3" value="Add visitor details" style="rounded=1;whiteSpace=wrap;html=1;" vertex="1" parent="1">
          <mxGeometry x="300" y="120" width="160" height="60" as="geometry" />
        </mxCell>
        <mxCell id="4" style="edgeStyle=orthogonalEdgeStyle;rounded=0;orthogonalLoop=1;" edge="1" parent="1" source="2" target="3">
          <mxGeometry relative="1" as="geometry" />
        </mxCell>
        <mxCell id="5" value="Validate information" style="rounded=1;whiteSpace=wrap;html=1;" vertex="1" parent="1">
          <mxGeometry x="300" y="200" width="160" height="60" as="geometry" />
        </mxCell>
        <mxCell id="6" edge="1" parent="1" source="3" target="5" style="edgeStyle=orthogonalEdgeStyle;">
          <mxGeometry relative="1" as="geometry" />
        </mxCell>
        <mxCell id="7" value="Integration with NIDA/Immigration" style="shape=document;whiteSpace=wrap;html=1;" vertex="1" parent="1">
          <mxGeometry x="280" y="280" width="200" height="60" as="geometry" />
        </mxCell>
        <mxCell id="8" edge="1" parent="1" source="5" target="7">
          <mxGeometry relative="1" as="geometry" />
        </mxCell>
        <mxCell id="9" value="Information valid?" style="rhombus;whiteSpace=wrap;html=1;" vertex="1" parent="1">
          <mxGeometry x="320" y="360" width="120" height="80" as="geometry" />
        </mxCell>
        <mxCell id="10" edge="1" parent="1" source="7" target="9" />
        <mxCell id="11" edge="1" parent="1" source="9" target="3" style="edgeStyle=orthogonalEdgeStyle;">
          <mxGeometry relative="1" as="geometry">
            <mxPoint x="260" y="180" as="targetPoint"/>
          </mxGeometry>
        </mxCell>
        <mxCell id="12" value="Select attraction sites" style="rounded=1;whiteSpace=wrap;html=1;" vertex="1" parent="1">
          <mxGeometry x="300" y="460" width="160" height="60" as="geometry" />
        </mxCell>
        <mxCell id="13" edge="1" parent="1" source="9" target="12">
          <mxGeometry relative="1" as="geometry" />
        </mxCell>
        <mxCell id="14" value="Assign visitors to sites" style="rounded=1;whiteSpace=wrap;html=1;" vertex="1" parent="1">
          <mxGeometry x="300" y="540" width="160" height="60" as="geometry" />
        </mxCell>
        <mxCell id="15" edge="1" parent="1" source="12" target="14" />
        <mxCell id="16" value="Generate reservations" style="shape=document;whiteSpace=wrap;html=1;" vertex="1" parent="1">
          <mxGeometry x="300" y="620" width="160" height="60" as="geometry" />
        </mxCell>
        <mxCell id="17" edge="1" parent="1" source="14" target="16" />
        <mxCell id="18" value="Generate billing control number" style="shape=document;whiteSpace=wrap;html=1;" vertex="1" parent="1">
          <mxGeometry x="280" y="700" width="200" height="60" as="geometry" />
        </mxCell>
        <mxCell id="19" edge="1" parent="1" source="16" target="18" />
        <mxCell id="20" value="Confirm itinerary" style="ellipse;whiteSpace=wrap;html=1;" vertex="1" parent="1">
          <mxGeometry x="320" y="780" width="120" height="60" as="geometry" />
        </mxCell>
        <mxCell id="21" edge="1" parent="1" source="18" target="20" />
        <mxCell id="22" value="End" style="ellipse;whiteSpace=wrap;html=1;" vertex="1" parent="1">
          <mxGeometry x="320" y="860" width="120" height="60" as="geometry" />
        </mxCell>
        <mxCell id="23" edge="1" parent="1" source="20" target="22" />
      </root>
    </mxGraphModel>
  </diagram>
</mxfile>
